HIERARCHY
ROOT Pelvis
{
	OFFSET 0.000000 0.000000 0.000000
	CHANNELS 6 Xposition Yposition Zposition Zrotation Yrotation Xrotation 
	JOINT Left_hip
	{
		OFFSET 0.076090 -0.089427 -0.010735
		CHANNELS 3 Zrotation Yrotation Xrotation
		JOINT Left_knee
		{
			OFFSET 0.030200 -0.359518 -0.003501
			CHANNELS 3 Zrotation Yrotation Xrotation
			JOINT Left_ankle
			{
				OFFSET -0.011005 -0.371022 -0.045888
				CHANNELS 3 Zrotation Yrotation Xrotation
				JOINT Left_foot
				{
					OFFSET 0.023930 -0.052103 0.111084
					CHANNELS 3 Zrotation Yrotation Xrotation
					End Site
					{
						OFFSET 0.000000 0.000000 0.000000
					}
				}
			}
		}
	}
	JOINT Right_hip
	{
		OFFSET -0.073836 -0.088112 -0.007709
		CHANNELS 3 Zrotation Yrotation Xrotation
		JOINT Right_knee
		{
			OFFSET -0.035715 -0.367809 -0.006536
			CHANNELS 3 Zrotation Yrotation Xrotation
			JOINT Right_ankle
			{
				OFFSET 0.013718 -0.371958 -0.043815
				CHANNELS 3 Zrotation Yrotation Xrotation
				JOINT Right_foot
				{
					OFFSET -0.021936 -0.046387 0.114542
					CHANNELS 3 Zrotation Yrotation Xrotation
					End Site
					{
						OFFSET 0.000000 0.000000 0.000000
					}
				}
			}
		}
	}
	JOINT Spine1
	{
		OFFSET -0.001865 0.102064 -0.019455
		CHANNELS 3 Zrotation Yrotation Xrotation
		JOINT Spine2
		{
			OFFSET 0.003082 0.129260 -0.001938
			CHANNELS 3 Zrotation Yrotation Xrotation
			JOINT Spine3
			{
				OFFSET 0.001104 0.048093 0.026561
				CHANNELS 3 Zrotation Yrotation Xrotation
				JOINT Neck
				{
					OFFSET -0.002010 0.204222 -0.047183
					CHANNELS 3 Zrotation Yrotation Xrotation
					JOINT Head
					{
						OFFSET 0.005050 0.063649 0.048489
						CHANNELS 3 Zrotation Yrotation Xrotation
						End Site
						{
							OFFSET 0.000000 0.000000 0.000000
						}
					}
				}
				JOINT Left_collar
				{
					OFFSET 0.072979 0.114065 -0.031633
					CHANNELS 3 Zrotation Yrotation Xrotation
					JOINT Left_shoulder
					{
						OFFSET 0.083419 0.032092 -0.006530
						CHANNELS 3 Zrotation Yrotation Xrotation
						JOINT Left_elbow
						{
							OFFSET 0.239393 -0.012014 -0.025060
							CHANNELS 3 Zrotation Yrotation Xrotation
							JOINT Left_wrist
							{
								OFFSET 0.227297 0.008116 0.000384
								CHANNELS 3 Zrotation Yrotation Xrotation
								JOINT Left_palm
								{
									OFFSET 0.074607 -0.009248 -0.012277
									CHANNELS 3 Zrotation Yrotation Xrotation
									End Site
									{
										OFFSET 0.000000 0.000000 0.000000
									}
								}
							}
						}
					}
				}
				JOINT Right_collar
				{
					OFFSET -0.074980 0.111880 -0.037894
					CHANNELS 3 Zrotation Yrotation Xrotation
					JOINT Right_shoulder
					{
						OFFSET -0.087565 0.034353 -0.009323
						CHANNELS 3 Zrotation Yrotation Xrotation
						JOINT Right_elbow
						{
							OFFSET -0.236838 -0.013719 -0.019794
							CHANNELS 3 Zrotation Yrotation Xrotation
							JOINT Right_wrist
							{
								OFFSET -0.235053 0.006433 -0.003853
								CHANNELS 3 Zrotation Yrotation Xrotation
								JOINT Right_palm
								{
									OFFSET -0.075499 -0.006894 -0.009792
									CHANNELS 3 Zrotation Yrotation Xrotation
									End Site
									{
										OFFSET 0.000000 0.000000 0.000000
									}
								}
							}
						}
					}
				}
			}
		}
	}
}
MOTION
Frames: 9
Frame Time: 0.100000
0.207797 0.263310 -0.252615 172.092741 23.817422 -5.522016 9.384953 -19.233084 -96.283818 5.936679 21.441833 111.689802 12.168767 -7.418106 11.990296 -22.877814 11.583372 -17.804621 -3.516391 20.524287 -79.595444 -6.809900 -6.987719 76.236042 -3.371719 3.213275 2.159242 1.256292 -10.668926 -4.400341 0.040737 4.295210 58.741165 3.178630 -1.345767 -15.003649 5.087604 1.472377 -7.062714 -3.719709 -5.524670 -38.036351 13.012959 -6.732854 -23.356869 -8.807624 -46.358096 -5.693263 -75.532229 -37.236642 38.137243 32.088870 -62.382900 7.119837 -17.850898 0.437815 6.952886 -3.411474 -0.458135 -4.518178 9.545332 46.244223 -0.507743 65.196515 32.743381 26.029601 -41.603102 54.125787 -2.787373 23.397002 -2.677026 -2.965571 -3.334381 5.951545 1.214371 
0.208566 0.263893 -0.252861 172.001906 23.766491 -5.456915 9.521326 -19.190476 -96.324721 5.684354 21.357906 111.484899 12.247331 -7.653215 12.279512 -23.187818 11.391834 -17.700733 -3.441460 20.524206 -79.594199 -6.745968 -6.958182 76.099355 -3.761439 3.686037 1.798150 2.111153 -11.266597 -4.419566 -0.009396 4.385864 58.654002 3.301359 -1.402060 -15.025843 5.173269 1.454062 -7.073147 -3.703454 -5.755110 -38.109282 13.242974 -6.852035 -23.912865 -8.740871 -46.224114 -5.837396 -76.163514 -37.285527 38.466992 31.304380 -61.061116 7.345373 -18.101506 0.494726 6.129812 -3.289985 -0.413328 -4.084687 9.624163 45.997759 -0.488205 65.391142 32.751491 26.145538 -41.450888 53.668483 -2.429816 23.790437 -3.081824 -3.084859 -3.494666 6.021350 1.324157 
0.205104 0.263537 -0.250870 171.132656 23.636239 -5.539384 10.199589 -19.099539 -96.510885 4.624701 20.358354 111.321375 11.745391 -8.443975 11.153811 -23.148357 10.955201 -17.162087 -2.377374 20.387790 -79.273707 -6.262210 -6.750008 75.300146 -2.770689 3.410247 1.744586 0.588713 -9.836776 -4.848485 0.238260 5.055133 57.712236 3.974943 -1.078200 -14.158052 5.804159 1.868340 -7.096954 -3.729559 -6.225548 -38.910725 13.744182 -6.979135 -25.007110 -10.585154 -46.557863 -5.557050 -77.748448 -37.214690 38.712678 28.760032 -56.541782 6.665080 -17.112938 2.034646 5.533126 -4.179581 -1.947894 -3.637858 12.687358 45.702737 1.726366 61.403910 31.259115 24.252828 -40.797557 57.223627 -1.841087 22.743464 -3.705672 -1.142301 -1.941463 7.021501 0.684667 
0.199639 0.263185 -0.252046 170.116668 23.130635 -6.577518 10.377882 -19.477922 -96.028891 4.721192 19.928602 111.236559 11.247543 -7.497520 12.708869 -22.511205 9.982983 -16.755969 -1.745903 20.247901 -78.320343 -5.876490 -7.588144 75.065608 -2.727181 3.759312 1.623166 0.402811 -9.791295 -4.605704 0.662982 5.361899 56.699027 4.798316 -1.032803 -13.520556 6.263000 2.350655 -7.089338 -3.640245 -5.619743 -37.719943 14.501876 -6.797634 -24.982661 -9.879232 -47.555415 -5.940645 -77.041429 -37.438384 38.751225 25.395598 -52.242731 6.678038 -17.159060 1.921467 4.475968 -4.308242 -2.185922 -3.549634 13.561309 46.011498 2.871507 60.093432 30.574706 23.930783 -37.550547 56.706702 1.032768 22.595452 -3.801857 -1.079938 -1.927974 7.129808 0.313029 
0.196591 0.263007 -0.248515 169.049643 23.240297 -8.708879 11.176473 -19.974931 -93.414594 4.560283 20.936036 110.558117 12.908147 -6.447220 10.897601 -23.732718 7.440184 -13.957435 -1.063593 20.042928 -76.232138 -5.534987 -8.693726 74.746865 -4.189144 4.882723 1.117695 3.879726 -11.418426 -4.253543 0.853137 6.103792 54.516367 6.171483 -0.644168 -11.816380 6.895927 3.139949 -7.115556 -3.775209 -6.170750 -35.167962 15.328565 -6.377909 -25.299009 -9.404073 -47.357328 -5.671113 -77.481999 -36.586305 39.412615 23.719432 -49.902862 3.025807 -14.754614 0.570498 -2.745096 -4.074569 -2.423485 -1.177444 15.703851 45.846193 5.459967 58.258044 30.854606 23.168849 -33.460545 52.572771 4.584173 22.288909 -4.933949 -0.343595 -2.904243 7.372861 0.225844 
0.190427 0.264458 -0.257599 167.961006 23.128693 -11.102512 10.175905 -21.096104 -92.712277 4.141498 19.613558 110.721440 11.283037 -5.729620 14.785437 -22.710194 6.007208 -14.945296 0.176812 19.605627 -73.880031 -5.564986 -9.040662 74.457955 -4.802518 4.867179 1.173835 4.000937 -11.536837 -3.984412 1.835253 5.816859 52.592421 6.570405 0.117766 -11.462841 7.313812 3.626949 -6.768914 -3.621391 -6.740906 -33.485422 15.103949 -5.175316 -23.999862 -9.943035 -45.562490 -4.853651 -79.025356 -34.412677 40.825836 24.863467 -54.952494 2.942623 -14.551350 -0.481452 -8.286753 -3.309698 -1.781885 1.076600 16.092852 45.315605 6.428909 56.911147 30.761582 22.221565 -28.219822 47.693248 9.215162 23.812450 -5.200731 -1.286604 -4.598971 6.651978 1.751344 
0.191518 0.267905 -0.264911 167.095575 23.284585 -14.319657 10.198261 -22.453410 -90.985022 3.990314 19.945763 110.693657 10.239026 -4.307062 16.223857 -20.771459 4.247101 -15.646846 0.327585 19.294680 -71.688807 -5.469152 -10.042971 74.948193 -2.987905 4.281419 1.993183 1.347479 -10.652694 -4.255663 1.895377 6.009008 50.040495 7.216791 0.773572 -10.696871 7.446992 4.014863 -6.076932 -3.776100 -7.061338 -31.834220 15.201155 -4.770892 -22.129230 -8.473796 -42.635683 -5.069764 -77.719252 -32.896321 41.611270 32.838986 -66.153466 -5.318868 -10.598045 -3.733350 -14.205019 -3.529045 -1.501295 3.028469 16.085069 42.767975 6.990550 55.122950 27.824895 21.287145 -28.161019 49.810037 6.711638 22.988851 -2.934597 -2.933621 -5.437852 5.993828 2.359977 
0.191539 0.270729 -0.270302 166.100598 22.164362 -18.355070 10.414584 -23.173279 -87.748059 3.765761 20.332079 109.849446 9.012835 -2.016543 16.816401 -19.387942 2.804216 -15.275161 2.359894 19.429398 -67.526150 -4.657703 -10.740310 74.139213 -3.298536 4.210463 2.243888 2.749290 -10.245547 -4.131170 1.065971 5.970197 48.139225 7.975444 0.764299 -9.767039 7.728663 3.578112 -5.189288 -2.946110 -7.140222 -28.881918 15.713591 -3.984597 -21.134781 -8.332290 -36.129077 -3.866941 -69.782428 -31.320574 36.245131 64.821365 -73.433852 -44.669786 -8.474988 -8.543000 -30.503758 -1.167329 -1.417266 9.029480 15.523563 38.004840 6.151136 53.730813 26.056811 22.829464 -28.564738 57.414666 4.486950 20.492896 -1.357325 -3.316410 -6.592126 6.186654 4.777070 
0.188521 0.276793 -0.279512 165.873999 20.445670 -21.707346 9.766080 -23.136330 -84.874813 3.273284 20.901268 108.215925 7.821139 0.047443 16.740923 -17.219085 2.383074 -15.268702 4.186103 19.430471 -64.089381 -3.052704 -10.474208 73.427537 -2.476324 2.562656 3.167541 1.506413 -6.627133 -4.863342 -0.000324 5.596475 46.042978 9.108260 0.115614 -9.388257 7.496676 2.745224 -3.375392 -2.884001 -5.308631 -26.396112 14.970048 -5.451491 -18.766079 -6.436141 -28.350947 -3.634592 -56.274548 -30.001377 25.163681 88.758901 -69.913905 -76.062392 -6.627786 -10.360191 -40.527164 -0.805165 -2.402887 12.246959 16.471839 31.470659 4.857559 54.724925 23.260472 24.683686 -36.316126 65.824384 -3.147005 15.541447 -0.758377 -1.153263 -4.301706 7.197556 5.391535 
